<svg width="25" height="24" viewBox="0 0 25 24" fill="none" xmlns="http://www.w3.org/2000/svg">
<path d="M21.1985 3.51934C20.8713 3.1871 20.4247 3 19.9585 3C19.4923 3 19.0455 3.1871 18.7184 3.51934L14.4784 7.74934L6.75845 5.18934C6.50579 5.10169 6.22523 5.16793 6.03845 5.35934L5.03845 6.35934C4.88371 6.51111 4.808 6.72601 4.83344 6.94126C4.85888 7.1565 4.98259 7.34783 5.16845 7.45934L11.1684 11.1293L7.16845 15.0593L5.35845 14.7693C5.17233 14.7329 4.98039 14.7931 4.84845 14.9293L3.96845 15.8093C3.80531 15.9484 3.73216 16.1661 3.77821 16.3754C3.82427 16.5847 3.98203 16.7516 4.18845 16.8093L6.75845 17.6493C6.92752 17.7074 7.06035 17.8403 7.11845 18.0093L7.99845 20.5293C8.05618 20.7358 8.22306 20.8935 8.4324 20.9396C8.64174 20.9856 8.85942 20.9125 8.99845 20.7493L9.75845 19.8693C9.89471 19.7374 9.95493 19.5455 9.91845 19.3593L9.65845 17.5493L13.5984 13.6093L17.2784 19.6093C17.3904 19.7916 17.5795 19.9127 17.792 19.938C18.0044 19.9634 18.2167 19.8902 18.3684 19.7393L19.3684 18.7393C19.5515 18.548 19.6165 18.2724 19.5384 18.0193L16.9684 10.2693L21.1985 5.95934C21.8643 5.28227 21.8643 4.19642 21.1985 3.51934Z" fill="#FF6600"/>
</svg>
